<?xml version="1.0" encoding="utf-8"?>
<!-- Generator: Adobe Illustrator 22.1.0, SVG Export Plug-In . SVG Version: 6.00 Build 0)  -->
<svg version="1.1" id="Layer_1" xmlns="http://www.w3.org/2000/svg" xmlns:xlink="http://www.w3.org/1999/xlink" x="0px" y="0px"
	 viewBox="0 0 90 112.5" style="enable-background:new 0 0 90 112.5;" xml:space="preserve">
<path d="M57.6,75.3c2-1.7,3-3.8,3-6.2c0-0.1,0-0.1,0-0.2c2.5-0.3,4.9-1.3,7-2.8l0,0c3.3-2.4,4.8-5.3,4.8-8.7c0-0.8-0.1-1.6-0.3-2.4
	c0.3-0.2,0.6-0.4,0.9-0.6c0,0,0.1-0.1,0.1-0.1c2.1-1.5,3.2-3.9,3.2-7.2c0.1-1.8-0.6-3.7-1.9-5.6c0.7-0.4,1.3-0.8,1.9-1.3
	c0.3-0.2,0.7-0.5,1.1-0.8c0.1-0.1,0.3-0.3,0.4-0.4c0,0,0.1-0.1,0.1-0.1c3.2-2.9,4.7-5.8,4.7-8.7c0.2-3-1.4-5.9-4.6-8.7l0,0
	c-5.3-4.7-12-5.7-20.2-2.8c-0.2-0.2-0.4-0.4-0.6-0.6v0c-4.1-4.3-8.7-6.5-13.7-6.4c-3.5-0.1-7.5,1.7-12,5.3l0,0
	c-2.7,2-4.9,5.2-6.7,9.5c-1.1-0.6-2.2-0.8-3.3-0.8c-4-0.2-7.2,2.2-9.6,7.1l0,0c-1.7,3.3-2.8,7-3.3,11v0c-0.5,4.1,0,8.2,1.3,12.3l0,0
	c1.4,4.5,4.9,7,10.4,7.5c0.6,1.1,1.3,2.3,2.2,3.5l0,0c3.1,4.4,8.3,6,15.6,4.8c0.5,0.6,1.2,1.2,1.9,1.9v0c3.1,2.7,6.2,4.1,9.5,4h0
	C53.3,77.7,55.8,76.9,57.6,75.3C57.6,75.3,57.6,75.3,57.6,75.3z M50.5,54.6c0,0,0.1,0,0.1,0.1c0.3,0.2,0.5,0.3,0.8,0.5
	c1.9,1.2,3.9,2,6.1,2.4c1.5,0.3,3.1,0.5,4.8,0.5c1.7,0,3.3-0.2,4.8-0.7c-0.1,1.6-1,3.1-2.6,4.3l0,0c-1.8,1.3-3.9,1.9-6.1,1.9
	c-2.7,0-5.2-0.7-7.5-2.1l0,0c-2.4-1.5-3.6-3.4-3.6-5.7c0-0.9,0.3-1.6,0.9-2.1h0c0.3-0.2,0.5-0.3,0.9-0.4
	C49.4,53.8,50,54.2,50.5,54.6z M57.9,43.2c0.1,0,0.2,0.1,0.3,0.1c0.3,0.1,0.6,0.1,0.8,0.2l-0.1,0c2.1,0.5,4.2,0.7,6.4,0.5h0
	c1.3-0.1,2.6-0.3,3.8-0.6c1.2,1.3,1.8,2.5,1.9,3.6c0,1.3-0.3,2.2-1,2.9L70,49.9c0,0,0,0-0.1,0c-0.4,0.2-0.7,0.5-1,0.7h0
	c-0.4,0.3-0.7,0.5-1,0.7c0,0-0.1,0-0.1,0.1c-0.2,0.1-0.3,0.1-0.4,0.2c-0.1,0-0.2,0.1-0.3,0.1c-1.5,0.7-3.1,1.1-4.8,1.1
	c-1.2,0-2.4-0.1-3.6-0.4c-1.6-0.3-3.1-0.9-4.5-1.8c-0.3-0.2-0.5-0.3-0.8-0.5c-0.7-0.5-1.3-1-1.7-1.5v0c-1-1.1-1.4-2.4-1.4-3.9
	c0-1,0.3-1.7,1-2.2v0c0.9-0.5,2-0.7,3.4-0.7C55.5,42.4,56.7,42.8,57.9,43.2z M74.5,25.4L74.5,25.4c1.8,1.5,2.7,3.1,2.8,4.6
	c-0.1,1.6-1.2,3.2-3.1,5C74.1,35,74,35.1,74,35.2c-0.1,0.1-0.1,0.2-0.2,0.2c-0.2,0.1-0.3,0.3-0.5,0.4c0,0-0.1,0.1-0.1,0.1
	c-1,0.8-2.1,1.4-3.3,1.9c-0.4,0.1-0.8,0.2-1.2,0.3c-1.2,0.3-2.4,0.5-3.6,0.6h0c-1.6,0.1-3.2,0-4.8-0.4c0,0-0.1,0-0.1,0
	c-0.2,0-0.5-0.1-0.7-0.1c-0.2-0.1-0.5-0.2-0.7-0.2c0.9-0.5,1.7-1.2,2.3-2c0,0,0,0,0-0.1c0.9-1.1,1.4-2.5,1.7-4.1
	c0.5,0.2,1.3,0.6,2.3,1c0.7,0.3,1.4,0.3,2,0.1c0.7-0.3,1.2-0.7,1.5-1.4c0.3-0.7,0.3-1.4,0.1-2c-0.3-0.7-0.7-1.2-1.4-1.5
	c-2.3-1-3.8-1.6-4.3-1.7c-0.1,0-0.2,0-0.3,0c-0.1,0-0.2,0-0.3,0c0,0,0-0.1,0-0.1c0,0,0-0.1,0-0.1c-0.3-0.9-0.7-1.8-1.2-2.8
	C66.4,21.6,70.9,22.4,74.5,25.4z M27.1,63.9L27.1,63.9c-2-2.7-2.7-4.9-2.1-6.6c0.3-0.7,0.4-1.3,0.2-2c-0.2-0.7-0.6-1.2-1.3-1.6
	c-0.6-0.3-1.3-0.4-2-0.2c-0.7,0.2-1.2,0.6-1.6,1.3c-0.6,1-0.9,2-1,3.1c-2-0.6-3.3-1.8-4-3.6l0,0c-1.1-3.4-1.5-6.7-1.1-10v0
	c0.4-3.4,1.3-6.5,2.7-9.3l0,0c1.3-2.6,2.9-4,4.8-4.1c0.5,0.1,1,0.3,1.4,0.7c-0.4,1.4-0.8,2.8-1.1,4.3c-0.2,0.7,0,1.4,0.4,2
	c0.4,0.6,0.9,1,1.7,1.2c0.7,0.2,1.4,0,2-0.4c0.6-0.4,1-0.9,1.2-1.7c1.7-7.8,4.3-13.1,7.7-16l0,0c3.3-2.7,6.2-4,8.7-4.1
	c3.6,0.1,6.8,1.6,9.8,4.8c0.5,0.5,1,1.1,1.4,1.6c0,0,0,0,0,0.1c0.1,0.1,0.1,0.1,0.2,0.2c1.1,1.3,1.8,2.7,2.2,4l0-0.1
	c0.1,0.4,0.2,0.9,0.3,1.3c0,0,0,0.1,0,0.1c0,0.2,0,0.5,0,0.8c0,1.2-0.3,2.3-0.8,3.1l0,0c-0.5,0.6-1.1,0.9-2,0.9
	c-0.4,0-0.8,0-1.1-0.1l-0.1,0h0c-0.8-0.3-1.5-0.8-2.2-1.5h0c-1.7-1.7-3-2.9-3.7-3.6c-0.1-0.3-0.3-0.5-0.5-0.7
	c-0.5-0.5-1-0.8-1.7-0.9c-0.7-0.1-1.3,0.1-1.8,0.5c-0.6,0.4-0.9,0.9-1,1.6c-0.3,1-0.1,2.2,0.4,3.9l0,0c0.3,0.8,0.4,1.3,0.5,1.7
	c-0.1,1.7-0.7,3.4-2,5.1l0,0c-1.2,1.6-2.5,2.6-3.8,2.8c-0.7,0.1-1.3,0.4-1.8,1c-0.5,0.6-0.6,1.2-0.5,2c0.1,0.7,0.4,1.3,1,1.8
	c0.6,0.5,1.2,0.6,2,0.5c2.3-0.2,4.6-1.5,6.6-4c0,0.3-0.1,0.7-0.1,1.1c0,1.5,0.3,3,0.8,4.3c-0.2,0.1-0.4,0.2-0.6,0.3
	c-2.2,1.3-3.3,3.5-3.3,6.5c0,0.3,0,0.6,0,0.9c-1.7,0.2-3.1,1.1-4.3,2.6l0,0c-1.3,1.5-1.9,3.4-1.9,5.7c0,0.6,0,1.2,0.2,1.7
	C31.9,67.1,29,66.2,27.1,63.9z M49.8,72.4c-2,0-4-0.9-5.9-2.6v0c-0.8-0.8-1.5-1.5-2-2.3l0-0.1c0,0-0.1-0.1-0.1-0.1
	c-0.5-0.8-0.7-1.5-0.7-2.2c0-1,0.2-1.8,0.7-2.4l0,0c0.3-0.4,0.7-0.6,1.2-0.7c0.1,0,0.2,0,0.3,0c0,0,0.1,0,0.1,0.1
	c0.2,0.1,0.3,0.1,0.5,0.2c1,1.4,2.4,2.7,4.2,3.8l0,0c2.2,1.4,4.6,2.2,7.1,2.6c0.1,0.1,0.1,0.2,0.2,0.3l0,0c0,0.8-0.4,1.6-1.1,2.2
	C53.2,72,51.7,72.4,49.8,72.4L49.8,72.4L49.8,72.4z"/>
</svg>
